<svg width="101" height="101" viewBox="0 0 101 101" fill="none" xmlns="http://www.w3.org/2000/svg">
<g filter="url(#filter0_d_162_1509)">
<rect x="22" y="18" width="57" height="57" rx="28.5" fill="#003366" shape-rendering="crispEdges"/>
<path d="M62.0725 47.1116L56.875 44.7191V37.8641C56.8726 37.7203 56.8289 37.5802 56.7491 37.4605C56.6694 37.3408 56.5568 37.2466 56.425 37.1891L50.8 34.6016C50.7013 34.5559 50.5938 34.5322 50.485 34.5322C50.3762 34.5322 50.2687 34.5559 50.17 34.6016L44.545 37.1891C44.4148 37.2493 44.3046 37.3457 44.2275 37.4666C44.1504 37.5876 44.1096 37.7281 44.11 37.8716V44.7266L38.935 47.1116C38.8048 47.1718 38.6946 47.2682 38.6175 47.3891C38.5404 47.5101 38.4996 47.6506 38.5 47.7941V55.1291C38.4996 55.2725 38.5404 55.4131 38.6175 55.534C38.6946 55.655 38.8048 55.7513 38.935 55.8116L44.56 58.3991C44.6587 58.4448 44.7662 58.4684 44.875 58.4684C44.9838 58.4684 45.0913 58.4448 45.19 58.3991L50.5 55.9541L55.81 58.3991C55.9087 58.4448 56.0162 58.4684 56.125 58.4684C56.2338 58.4684 56.3413 58.4448 56.44 58.3991L62.065 55.8116C62.1952 55.7513 62.3054 55.655 62.3825 55.534C62.4596 55.4131 62.5004 55.2725 62.5 55.1291V47.7941C62.501 47.6514 62.4613 47.5115 62.3856 47.3906C62.3099 47.2697 62.2013 47.1729 62.0725 47.1116ZM59.965 47.7941L56.1325 49.5416L52.3 47.7941L56.1325 46.0316L59.965 47.7941ZM50.5 36.1016L54.3325 37.8641L50.5 39.6266L46.675 37.8641L50.5 36.1016ZM44.875 46.0241L48.7075 47.7866L44.875 49.5416L41.0425 47.7941L44.875 46.0241ZM49.75 54.6416L44.875 56.8916L40 54.6416V48.9641L44.56 51.0416C44.6567 51.085 44.7615 51.1075 44.8675 51.1075C44.9735 51.1075 45.0783 51.085 45.175 51.0416L49.735 48.9416L49.75 54.6416ZM45.625 44.7191V39.0416L50.185 41.1416C50.2837 41.1873 50.3912 41.2109 50.5 41.2109C50.6088 41.2109 50.7163 41.1873 50.815 41.1416L55.375 39.0416V44.7266L50.5 46.9766L45.625 44.7191ZM61.0075 54.6491L56.1325 56.8991L51.25 54.6491V48.9566L55.8175 51.0416C55.9132 51.084 56.0166 51.1058 56.1213 51.1058C56.2259 51.1058 56.3293 51.084 56.425 51.0416L60.985 48.9416L61.0075 54.6491Z" fill="#F8F8F8"/>
</g>
<defs>
<filter id="filter0_d_162_1509" x="0.299999" y="0.299999" width="100.4" height="100.4" filterUnits="userSpaceOnUse" color-interpolation-filters="sRGB">
<feFlood flood-opacity="0" result="BackgroundImageFix"/>
<feColorMatrix in="SourceAlpha" type="matrix" values="0 0 0 0 0 0 0 0 0 0 0 0 0 0 0 0 0 0 127 0" result="hardAlpha"/>
<feOffset dy="4"/>
<feGaussianBlur stdDeviation="10.85"/>
<feComposite in2="hardAlpha" operator="out"/>
<feColorMatrix type="matrix" values="0 0 0 0 0.0705882 0 0 0 0 0.490196 0 0 0 0 0.478431 0 0 0 1 0"/>
<feBlend mode="normal" in2="BackgroundImageFix" result="effect1_dropShadow_162_1509"/>
<feBlend mode="normal" in="SourceGraphic" in2="effect1_dropShadow_162_1509" result="shape"/>
</filter>
</defs>
</svg>
